<?xml version="1.0"?>
<svg width="330" height="330" xmlns="http://www.w3.org/2000/svg" xmlns:svg="http://www.w3.org/2000/svg" enable-background="new 0 0 330 330" version="1.1" xml:space="preserve">
 <g class="layer">
  <title>Layer 1</title>
  <g id="XMLID_88_">
   <path d="m304.135,10.371c-13.375,-6.688 -30.825,-10.371 -49.135,-10.371s-35.76,3.683 -49.135,10.371c-16.679,8.339 -25.865,20.638 -25.865,34.629l0,15.85c-4.889,-0.555 -9.908,-0.85 -15,-0.85s-10.111,0.295 -15,0.85l0,-15.85c0,-13.991 -9.186,-26.29 -25.865,-34.629c-13.375,-6.688 -30.824,-10.371 -49.135,-10.371s-35.76,3.683 -49.135,10.371c-16.679,8.339 -25.865,20.638 -25.865,34.629l0,60c0,13.991 9.186,26.29 25.865,34.629c13.375,6.688 30.824,10.371 49.135,10.371c5.058,0 10.084,-0.303 15,-0.861l0,15.861c0,13.991 9.186,26.29 25.865,34.629c13.375,6.688 30.824,10.371 49.135,10.371s35.76,-3.683 49.135,-10.371c16.679,-8.339 25.865,-20.638 25.865,-34.629l0,-15.832c4.871,0.548 9.889,0.832 15,0.832c18.31,0 35.76,-3.683 49.135,-10.371c16.68,-8.339 25.865,-20.638 25.865,-34.629l0,-60c0,-13.991 -9.185,-26.29 -25.865,-34.629zm-84.854,26.832c9.157,-4.578 22.175,-7.203 35.719,-7.203c13.544,0 26.563,2.625 35.719,7.203c7.668,3.835 9.281,7.278 9.281,7.797s-1.613,3.962 -9.281,7.797c-9.156,4.578 -22.175,7.203 -35.719,7.203c-13.544,0 -26.563,-2.625 -35.719,-7.203c-7.668,-3.835 -9.281,-7.278 -9.281,-7.797s1.613,-3.962 9.281,-7.797zm-18.562,60c7.668,3.834 9.281,7.278 9.281,7.797s-1.613,3.962 -9.281,7.797c-9.156,4.577 -22.175,7.203 -35.719,7.203s-26.563,-2.626 -35.719,-7.203c-7.668,-3.835 -9.281,-7.278 -9.281,-7.797s1.613,-3.962 9.281,-7.797c9.157,-4.577 22.175,-7.203 35.719,-7.203s26.563,2.626 35.719,7.203zm-161.438,-60c9.157,-4.578 22.175,-7.203 35.719,-7.203s26.563,2.625 35.719,7.203c7.668,3.835 9.281,7.278 9.281,7.797s-1.613,3.962 -9.281,7.797c-9.156,4.578 -22.175,7.203 -35.719,7.203s-26.563,-2.625 -35.719,-7.203c-7.668,-3.835 -9.281,-7.278 -9.281,-7.797s1.613,-3.962 9.281,-7.797zm35.719,82.797c-13.544,0 -26.563,-2.626 -35.719,-7.203c-7.668,-3.834 -9.281,-7.278 -9.281,-7.797l0,-23.467c12.743,5.474 28.518,8.467 45,8.467c6.738,0 13.356,-0.503 19.701,-1.466c-3.078,5.086 -4.701,10.625 -4.701,16.466l0,13.895c-4.819,0.721 -9.869,1.105 -15,1.105zm135,45c0,0.519 -1.613,3.962 -9.281,7.797c-9.156,4.577 -22.175,7.203 -35.719,7.203s-26.563,-2.626 -35.719,-7.203c-7.668,-3.835 -9.281,-7.278 -9.281,-7.797l0,-23.467c12.743,5.474 28.518,8.467 45,8.467c16.48,0 32.25,-2.992 44.992,-8.464c0.003,0.001 0.005,0.003 0.008,0.003l0,23.461zm80.719,-52.203c-9.156,4.577 -22.175,7.203 -35.719,7.203c-5.176,0 -10.223,-0.379 -15,-1.087l0,-13.913c0,-5.841 -1.623,-11.38 -4.701,-16.466c6.344,0.963 12.963,1.466 19.701,1.466c16.482,0 32.257,-2.993 45,-8.467l0,23.467c0,0.519 -1.613,3.963 -9.281,7.797z" fill="#cc9544" id="XMLID_89_"/>
   <path d="m314.999,239.984l-300,0.016c-8.284,0.001 -14.999,6.716 -14.999,15.001c0,8.284 6.717,14.999 15.001,14.999l300,-0.016c8.284,-0.001 14.999,-6.716 14.999,-15.001c0,-8.284 -6.717,-14.999 -15.001,-14.999z" fill="#cc9544" id="XMLID_105_"/>
   <path d="m314.999,299.984l-300,0.016c-8.284,0 -14.999,6.716 -14.999,15.001c0,8.284 6.717,14.999 15.001,14.999l300,-0.016c8.284,-0.001 14.999,-6.716 14.999,-15.001c0,-8.284 -6.717,-14.999 -15.001,-14.999z" fill="#cc9544" id="XMLID_106_"/>
  </g>
  <g id="svg_1"/>
  <g id="svg_2"/>
  <g id="svg_3"/>
  <g id="svg_4"/>
  <g id="svg_5"/>
  <g id="svg_6"/>
  <g id="svg_7"/>
  <g id="svg_8"/>
  <g id="svg_9"/>
  <g id="svg_10"/>
  <g id="svg_11"/>
  <g id="svg_12"/>
  <g id="svg_13"/>
  <g id="svg_14"/>
  <g id="svg_15"/>
 </g>
</svg>